REM DIRINDEX 1\5,1\2\6,1\2\7,1\3\8,1\3\9,1\4\10,1\4\11,1\4\12
REM DIRNAME cjc026,folder01,folder02,folder03,folder04,folder05,folder06,folder07,folder08,folder09,folder10,folder11
TITLE ""
FILE "EJE_DB3000_5th_5C_10.mp3" MP3
  TRACK 01 AUDIO
    TITLE "0:"
    INDEX 01 00:00:00
  TRACK 02 AUDIO
    TITLE "10:cjc026_10485"
    INDEX 01 00:00:08
  TRACK 03 AUDIO
    TITLE "0:"
    INDEX 01 00:01:38
  TRACK 04 AUDIO
    TITLE "11:cjc026_10486"
    INDEX 01 00:02:01
  TRACK 05 AUDIO
    TITLE "0:"
    INDEX 01 00:03:36
  TRACK 06 AUDIO
    TITLE "12:cjc026_10487"
    INDEX 01 00:03:69
  TRACK 07 AUDIO
    TITLE "0:"
    INDEX 01 00:05:27
  TRACK 08 AUDIO
    TITLE "10:cjc026_10488"
    INDEX 01 00:05:62
  TRACK 09 AUDIO
    TITLE "0:"
    INDEX 01 00:07:06
  TRACK 10 AUDIO
    TITLE "11:cjc026_10489"
    INDEX 01 00:07:42
  TRACK 11 AUDIO
    TITLE "0:"
    INDEX 01 00:09:05
  TRACK 12 AUDIO
    TITLE "12:cjc026_10490"
    INDEX 01 00:09:43
  TRACK 13 AUDIO
    TITLE "0:"
    INDEX 01 00:10:60
  TRACK 14 AUDIO
    TITLE "10:cjc026_10491"
    INDEX 01 00:11:22
  TRACK 15 AUDIO
    TITLE "0:"
    INDEX 01 00:12:42
  TRACK 16 AUDIO
    TITLE "11:cjc026_10492"
    INDEX 01 00:13:02
  TRACK 17 AUDIO
    TITLE "0:"
    INDEX 01 00:14:21
  TRACK 18 AUDIO
    TITLE "12:cjc026_10493"
    INDEX 01 00:14:59
  TRACK 19 AUDIO
    TITLE "0:"
    INDEX 01 00:16:04
  TRACK 20 AUDIO
    TITLE "10:cjc026_10494"
    INDEX 01 00:16:39
  TRACK 21 AUDIO
    TITLE "0:"
    INDEX 01 00:17:48
  TRACK 22 AUDIO
    TITLE "11:cjc026_10495"
    INDEX 01 00:18:08
  TRACK 23 AUDIO
    TITLE "0:"
    INDEX 01 00:19:38
  TRACK 24 AUDIO
    TITLE "12:cjc026_10496"
    INDEX 01 00:19:73
  TRACK 25 AUDIO
    TITLE "0:"
    INDEX 01 00:21:07
  TRACK 26 AUDIO
    TITLE "10:cjc026_10497"
    INDEX 01 00:21:45
  TRACK 27 AUDIO
    TITLE "0:"
    INDEX 01 00:22:69
  TRACK 28 AUDIO
    TITLE "11:cjc026_10498"
    INDEX 01 00:23:32
  TRACK 29 AUDIO
    TITLE "0:"
    INDEX 01 00:24:54
  TRACK 30 AUDIO
    TITLE "12:cjc026_10499"
    INDEX 01 00:25:15
  TRACK 31 AUDIO
    TITLE "0:"
    INDEX 01 00:26:39
  TRACK 32 AUDIO
    TITLE "10:cjc026_10500"
    INDEX 01 00:27:02
  TRACK 33 AUDIO
    TITLE "0:"
    INDEX 01 00:28:24
  TRACK 34 AUDIO
    TITLE "11:cjc026_10501"
    INDEX 01 00:28:62
  TRACK 35 AUDIO
    TITLE "0:"
    INDEX 01 00:30:12
  TRACK 36 AUDIO
    TITLE "12:cjc026_10502"
    INDEX 01 00:30:47
  TRACK 37 AUDIO
    TITLE "0:"
    INDEX 01 00:31:69
  TRACK 38 AUDIO
    TITLE "10:cjc026_10503"
    INDEX 01 00:32:32
  TRACK 39 AUDIO
    TITLE "0:"
    INDEX 01 00:33:52
  TRACK 40 AUDIO
    TITLE "11:cjc026_10504"
    INDEX 01 00:34:12
  TRACK 41 AUDIO
    TITLE "0:"
    INDEX 01 00:35:48
  TRACK 42 AUDIO
    TITLE "12:cjc026_10505"
    INDEX 01 00:36:08
  TRACK 43 AUDIO
    TITLE "0:"
    INDEX 01 00:37:30
  TRACK 44 AUDIO
    TITLE "10:cjc026_10506"
    INDEX 01 00:37:62
  TRACK 45 AUDIO
    TITLE "0:"
    INDEX 01 00:39:09
  TRACK 46 AUDIO
    TITLE "11:cjc026_10507"
    INDEX 01 00:39:47
  TRACK 47 AUDIO
    TITLE "0:"
    INDEX 01 00:40:72
  TRACK 48 AUDIO
    TITLE "12:cjc026_10508"
    INDEX 01 00:41:32
  TRACK 49 AUDIO
    TITLE "0:"
    INDEX 01 00:42:54
  TRACK 50 AUDIO
    TITLE "10:cjc026_10509"
    INDEX 01 00:43:15
  TRACK 51 AUDIO
    TITLE "0:"
    INDEX 01 00:44:29
  TRACK 52 AUDIO
    TITLE "11:cjc026_10510"
    INDEX 01 00:44:64
  TRACK 53 AUDIO
    TITLE "0:"
    INDEX 01 00:46:33
  TRACK 54 AUDIO
    TITLE "12:cjc026_10511"
    INDEX 01 00:46:65
  TRACK 55 AUDIO
    TITLE "0:"
    INDEX 01 00:48:04
  TRACK 56 AUDIO
    TITLE "10:cjc026_10512"
    INDEX 01 00:48:42
  TRACK 57 AUDIO
    TITLE "0:"
    INDEX 01 00:49:59
  TRACK 58 AUDIO
    TITLE "11:cjc026_10513"
    INDEX 01 00:50:19
  TRACK 59 AUDIO
    TITLE "0:"
    INDEX 01 00:51:22
  TRACK 60 AUDIO
    TITLE "12:cjc026_10514"
    INDEX 01 00:51:63
  TRACK 61 AUDIO
    TITLE "0:"
    INDEX 01 00:53:02
  TRACK 62 AUDIO
    TITLE "10:cjc026_10515"
    INDEX 01 00:53:39
  TRACK 63 AUDIO
    TITLE "0:"
    INDEX 01 00:54:62
  TRACK 64 AUDIO
    TITLE "11:cjc026_10516"
    INDEX 01 00:55:24
  TRACK 65 AUDIO
    TITLE "0:"
    INDEX 01 00:57:01
  TRACK 66 AUDIO
    TITLE "12:cjc026_10517"
    INDEX 01 00:57:39
  TRACK 67 AUDIO
    TITLE "0:"
    INDEX 01 00:58:64
  TRACK 68 AUDIO
    TITLE "10:cjc026_10518"
    INDEX 01 00:59:24
  TRACK 69 AUDIO
    TITLE "0:"
    INDEX 01 01:00:52
  TRACK 70 AUDIO
    TITLE "11:cjc026_10519"
    INDEX 01 01:01:12
  TRACK 71 AUDIO
    TITLE "0:"
    INDEX 01 01:02:45
  TRACK 72 AUDIO
    TITLE "12:cjc026_10520"
    INDEX 01 01:03:08
  TRACK 73 AUDIO
    TITLE "0:"
    INDEX 01 01:04:35
  TRACK 74 AUDIO
    TITLE "10:cjc026_10521"
    INDEX 01 01:04:70
  TRACK 75 AUDIO
    TITLE "0:"
    INDEX 01 01:06:17
  TRACK 76 AUDIO
    TITLE "11:cjc026_10522"
    INDEX 01 01:06:53
  TRACK 77 AUDIO
    TITLE "0:"
    INDEX 01 01:08:35
  TRACK 78 AUDIO
    TITLE "12:cjc026_10523"
    INDEX 01 01:08:70
  TRACK 79 AUDIO
    TITLE "0:"
    INDEX 01 01:10:17
  TRACK 80 AUDIO
    TITLE "10:cjc026_10524"
    INDEX 01 01:10:55
  TRACK 81 AUDIO
    TITLE "0:"
    INDEX 01 01:12:10
  TRACK 82 AUDIO
    TITLE "11:cjc026_10525"
    INDEX 01 01:12:45
  TRACK 83 AUDIO
    TITLE "0:"
    INDEX 01 01:14:06
  TRACK 84 AUDIO
    TITLE "12:cjc026_10526"
    INDEX 01 01:14:44
  TRACK 85 AUDIO
    TITLE "0:"
    INDEX 01 01:15:74
